Patient4_TMGait_0pt5_02_right_35_EMG.mot
version=1
nRows=30
nColumns=33
inDegrees=no
endheader
time	1LAddLong	2LGlutMax	3LGlutMed	4LIliopsoas	5LSemiMemb	6LBicFemLong	7LRecFem	8LVastMed	9LVastLat	10LGasMed	11LTibAnt	12lTibPost	13LPeroneusLong	14LSol	15LExtDigLong	16LFlexDigLong	17RAddLong	18RGlutMax	19RGlutMed	20RIliopsoas	21RSemiMemb	22RBicFemLong	23RRecFem	24RVastMed	25RVastLat	26RGasMed	27RTibAnt	28RTibPost	29RPeroneusLong	30RSol	31RExtDigLong	32RFlexDigLong
45.74	-0.006866	0.033264	0.027161	0.01709	-0.077362	0.071106	0.12222	0.005951	-0.016479	-0.37125	0.22461	0.014191	-0.2153	0.25772	0.22781	0.075073	-0.00061	0.021667	0.007019	0.089111	0.02655	0.018616	0.085144	-0.045929	0.008698	-0.016174	-0.00351	-0.002136	0.093079	-0.054932	-0.004883	-0.011902
45.741	-0.004578	0.039978	0.008545	0.009918	-0.089569	0.034485	0.1532	0.001221	-0.006714	-0.4007	0.15015	0.015106	-0.30975	0.29785	0.34744	0.055847	-0.011292	0.002136	-0.23392	-0.057068	0.029449	0.02594	0.053558	-0.036316	0.001831	-0.010071	0.008087	-0.002136	0.080872	-0.10178	0.00061	-0.02533
45.742	0.006256	0.04425	0.053558	0.007629	-0.01236	0.012665	0.15457	-0.001373	-0.026093	-0.32074	0.008698	0.003662	-0.18677	0.20981	0.21378	-0.23941	-0.03891	-0.015564	-0.22125	-0.045776	0.01709	0.025787	0.032196	-0.025482	0.011597	-0.00061	0.031281	-0.003967	0.06012	-0.12238	-0.002594	-0.011902
45.743	0.007935	0.054932	0.013428	0.016785	0.029144	0.046234	0.13275	0.004883	-0.02182	-0.20767	-0.19073	-0.007172	0.12238	0.10086	0.37506	-0.044403	-0.053406	-0.014191	-0.38528	0.046997	0.017242	0.014038	0.054016	-0.045471	0.017853	0	0.10269	-0.001373	0.058441	-0.12009	-0.000763	-0.015259
45.744	0.008087	0.070496	-0.037689	0.018768	0.033875	0.07843	0.093689	0.012207	-0.00473	0.006714	-0.37537	-0.032196	0.20828	0.088043	-0.23315	0.26032	-0.064087	0.007629	-0.038757	0.033264	0.014038	0.013123	0.001221	-0.025177	0.007629	-0.002594	0.040741	-0.000916	0.075378	-0.018921	-0.000916	-0.018463
45.745	0.00824	0.030365	-0.02655	0.017242	0.005188	0.071411	0.083008	0.010529	0.013275	0.30304	-0.2684	0.085602	0.13199	0.13428	0.12543	0.11047	-0.063934	0.016937	-0.11581	0.058899	0.00824	-0.001678	0.053101	-0.060425	0.00351	-0.01709	0.047455	-0.000916	0.17532	0.047607	-0.003967	-0.018005
45.746	0.006409	0.045929	0.062103	0.016022	0.003052	0.069122	0.095367	-0.000763	0.032501	0.15472	0.080109	0.19089	0.070801	0.18601	-0.15335	0.063934	-0.040436	-0.020599	-0.16617	0.071564	-0.009003	-0.010071	0.035706	-0.083008	-0.008545	-0.003052	0.28763	-0.002136	0.13245	0.067139	-0.003357	-0.012207
45.747	0.004425	0.011597	0.045013	0.020294	-0.016785	0.063171	0.074005	0.003967	0.02533	-0.14038	0.13901	0.27939	0.044556	0.13153	-0.34119	0.073853	-0.037384	0.00412	0.079498	0.13596	-0.004272	0.011139	0.043488	-0.049896	0.023651	-0.011444	0.37888	-0.000458	-0.065613	0.025635	-0.003357	-0.011292
45.748	0.012054	0.054779	0.045319	0.022888	0.012512	0.051117	0.057526	0.004425	0.027771	-0.046082	0.058289	-0.52124	-0.006104	-0.019989	-0.26337	-0.031738	-0.038147	0.062408	-0.013275	0.15366	0.005341	0.021515	0.061188	-0.037231	-0.013275	-0.009766	0.14282	-0.001678	-0.15961	0.009155	-0.004883	-0.01236
45.749	0.009918	0.074005	0.092926	0.012817	0.013428	0.012207	0.071106	0.009613	0.054169	0.054016	0.08255	0.035858	0.011902	-0.1976	-0.20187	0.094147	-0.039063	0.019073	-0.18829	0.121	0.014038	0.021515	0.077972	-0.002747	-0.003052	-0.012512	-0.036316	-0.000763	-0.20447	-0.029449	0	-0.013428
45.75	0.010376	0.053253	0.12146	0.019379	-0.010834	0.011444	0.10178	0.004883	-0.10635	0.16525	0.12177	0.062561	0.008698	-0.17654	0.14374	0.36133	-0.031128	-0.005188	-0.242	-0.012054	0.019379	0.018463	0.10681	0.007629	-0.002289	-0.00824	0.10574	-0.004578	-0.2301	-0.070648	0.000763	-0.006561
45.751	0.050812	0.048218	0.12039	0.029907	-0.026093	0.007019	0.12131	0.00824	-0.054932	0.22705	0.11383	0.083618	-0.040283	0.10452	0.15411	-0.61569	-0.014648	-0.032349	-0.21805	-0.096741	0.019226	0.034485	0.098419	-0.049896	0.001984	-0.009766	0.45334	-0.003357	0.012207	-0.072479	-0.000305	-0.002136
45.752	0.038757	0.066376	0.12573	0.005341	0.021667	-0.06073	0.11261	-0.005188	-0.00412	0.084991	0.018616	0.022888	-0.071716	0.11795	0.62317	-0.25925	0.045624	-0.066071	-0.18265	-0.081787	0.015717	0.026093	0.085144	-0.079956	-0.009308	-0.010376	0.48309	-0.001068	-0.069275	-0.062103	-0.005493	-0.001221
45.753	-0.013733	0.046692	0.075378	0.015411	0.049286	-0.070038	0.092621	0.000763	-0.00061	-0.032349	0.012512	0.12787	-0.02243	-0.10071	0.16251	0.35309	0.06546	-0.061646	-0.091248	-0.071869	0.003052	0.031433	0.061188	-0.11353	-0.011292	-0.007782	0.42664	-0.001373	-0.16419	-0.070801	-0.001678	0.003967
45.754	0.005646	0.036011	-0.000153	0.019989	-0.016327	-0.050659	0.084839	0.00412	0.013733	-0.1268	0.072784	0.032959	0.049286	0.15595	0.1947	-0.80673	0.07843	-0.059967	-0.040588	0.016479	0.003052	0.018158	0.10254	-0.1059	-0.002441	-0.009766	0.17624	-0.003357	-0.10941	-0.10162	-0.002289	-0.001373
45.755	-0.012665	0.039368	0.009766	0.00412	-0.095825	-0.027618	0.062866	0.004425	0.010681	-0.14694	0.094452	-0.12436	0.080109	0.37125	-0.24918	-0.23117	0.075684	-0.068359	-0.034943	-0.088654	0.014648	0.025635	0.047607	-0.1207	0.005341	-0.003357	-0.81436	-0.004272	-0.056305	-0.1297	-0.002899	0.007935
45.756	-0.003967	0.043488	0.13443	0.004272	-0.089264	0.00946	0.088654	0.003357	0.000153	-0.12619	0.073547	-0.07019	0.067291	0.40283	-0.38147	0.62256	0.063629	-0.041962	-0.1387	-0.15671	0.019836	0.015564	0.056152	-0.17563	0.007477	-0.005341	-0.737	0.000153	-0.091553	-0.078583	-0.00412	0.010071
45.757	0.003052	0.012207	0.033722	0.015411	0.011292	-0.007629	0.075989	0.000458	0.006561	-0.11978	-0.21439	-0.048218	0.049744	0.38116	-0.32227	-0.022125	0.034943	-0.001831	0.17273	-0.09903	0.021057	0.020752	0.031128	-0.16159	0.012665	-0.000305	-0.35858	-0.001373	0.010834	-0.029449	-0.004272	0.010681
45.758	0.014038	-0.018463	-0.018158	0.001831	0.031281	-0.019684	0.11169	0.003052	-0.025024	-0.06134	-0.097809	-0.022278	-0.001221	0.14511	-0.45822	-0.18478	0.022125	-0.06424	0.29602	-0.005341	0.015411	0.026093	0.065613	-0.14816	0.003662	0.001373	-0.17151	-0.001678	0.33997	0.046234	0	0.004578
45.759	0.010529	-0.013885	0.053253	0.01297	0.11505	-0.046234	0.1355	-0.007019	-0.024872	-0.049744	0.053558	-0.019379	-0.045929	-0.010223	-0.26077	0.82459	0.010529	-0.093994	-0.066223	0.121	0.019531	0.033112	0.040741	-0.10376	0.00946	-0.003052	-0.004578	-0.002136	0.045013	0.086975	-0.002899	0.006256
45.76	0.018616	-0.036926	0.07309	0.013733	0.090027	-0.03067	0.13351	-0.003662	-0.023804	-0.040131	-0.023956	-0.012665	-0.019836	-0.1091	-0.23712	0.060425	0.066223	-0.056305	0.071411	0.0354	0.010681	0.009308	0.01709	-0.081329	0.006714	-0.008545	0.092621	0	-0.10544	0.069427	-0.002747	-0.001373
45.761	0.005646	-0.023041	0.070496	0.024261	0.00351	0.040283	0.15274	-0.001068	-0.01709	-0.10986	-0.11917	0.003662	-0.029602	0.071259	-0.065308	0.29404	0.10757	-0.09613	-0.097656	-0.13718	-0.003204	0.000763	0.015106	-0.077362	0.010834	-0.008545	-0.010529	-0.001068	-0.089874	0.02655	-0.007782	-0.00061
45.762	0.00824	-0.006866	0.015717	0.017242	-0.05188	0.055847	0.15747	0.006104	-0.009155	-0.21973	-0.16281	0.16739	-0.0737	0.3305	0.096283	-0.60333	0.072327	-0.11124	-0.4747	-0.16632	-0.020752	-0.007782	0.027313	-0.059814	0.013885	-0.019379	-0.11932	-0.000458	-0.11673	-0.003052	-0.001831	-0.007782
45.763	0.022888	0.007782	0.019684	0.010223	-0.04776	0.034637	0.13229	0.001068	-0.039825	-0.2298	-0.12299	-0.085754	-0.092163	0.38864	0.20523	-1.1304	0.009003	-0.062561	-0.43472	-0.046082	-0.02594	-0.000458	-0.020752	-0.03067	0.021515	-0.023804	-0.25436	-0.003357	0.15518	0.023499	-0.007629	0.00061
45.764	0.009918	0.009613	0.028687	0.011597	0.065155	0.022278	0.068665	-0.005646	0.009766	-0.16388	-0.1416	-0.14145	-0.11078	0.24963	0.14481	0.91095	-0.018005	-0.075226	-0.35721	0.077362	-0.015411	0.012665	0.020294	-0.054169	0.033417	-0.032349	-0.18997	-0.001984	0.14801	0.016327	-0.003204	-0.000916
45.765	0.013885	-0.033722	-0.02182	0.01236	0.049896	-0.011749	0.071716	0.005188	-0.012512	-0.14786	-0.12894	-0.031281	-0.069275	0.21866	0.13947	0.44296	-0.051575	-0.086365	-0.092468	-0.049896	-0.019531	0.013733	0.002747	-0.03891	0.039825	-0.039063	-0.12985	-0.003357	0.15427	0.01236	-0.001984	-0.006714
45.766	0.022278	-0.018616	-0.01709	0.019073	0.005188	-0.017548	0.03952	0.006714	0.031433	0.011292	-0.043335	-0.024872	0.12848	0.10956	0.29343	0.056152	-0.089569	-0.070496	0.38177	-0.086365	-0.010376	0.019836	0.039368	0.005951	0.031128	-0.049133	-0.037079	-0.002136	0.18509	0.009766	-0.000763	-0.013123
45.767	0.010223	0.018463	-0.00351	0.010071	-0.045319	-0.006561	0.020905	0.000916	0.11612	0.15167	-0.069427	-0.016174	0.15564	-0.2153	0.54428	-0.12848	-0.094604	-0.052795	0.59967	-0.10452	-0.00061	0.014954	0.042572	-0.068665	0.030518	-0.061951	0.15961	-0.001373	0.081329	0.007324	-0.001526	-0.014496
45.768	0.016479	-0.007172	-0.070953	0.021515	-0.014648	0.020905	0.072327	0.007172	0.090027	0.15701	0.049744	-0.009613	0.11383	-0.63568	-0.11169	-0.11993	-0.083618	-0.0354	0.35461	-0.011902	-0.001068	0.012817	0.040131	-0.02655	0.033875	-0.081787	0.36362	-0.000763	-0.058136	-0.014343	-0.002441	0.000305
45.769	0.018768	-0.006409	-0.061188	0.004425	0.033569	0.025787	0.12405	0.002747	0.036621	0.37888	0.13962	-0.006256	0.028229	-0.57465	0.14587	-0.091858	-0.06134	-0.044556	-0.26993	0.14999	0.022736	0.026245	0.015106	0.012665	0.021515	-0.10147	0.4039	-0.000305	-0.080566	-0.018005	0.000305	-0.001373
